0
SECTION
2
HEADER
9
$ACADVER
1
AC1009
9
$INSBASE
10
0.000
20
0.000
30
0.000
9
$EXTMIN
10
7513938.660
20
4691208.600
9
$EXTMAX
10
7513938.660
20
4691208.600
0
ENDSEC
0
SECTION
2
TABLES
0
TABLE
2
LTYPE
70
1
0
LTYPE
2
continuous
70
64
3
Solid line
72
65
73
0
40
0.000
0
ENDTAB
0
TABLE
2
LAYER
70
1
0
LAYER
2
Parcela
70
64
62
7
6
continuous
0
ENDTAB
0
TABLE
2
STYLE
70
1
0
STYLE
2
ANNOTATIVE
70
0
40
0
41
40
50
50
71
0
42
1
3
ARIAL.TTF
4

0
ENDTAB
0
TABLE
2
VIEW
70
0
0
ENDTAB
0
ENDSEC
0
SECTION
2
BLOCKS
0
ENDSEC
0
SECTION
2
ENTITIES
0
POLYLINE
66
1
8
Parcela Baze
70
0
10
7512505.186
20
4695653.752
0
VERTEX
8
Parcela Baze
10
7512505.186
20
4695653.752
0
VERTEX
8
Parcela Baze
10
7512517.306
20
4695659.112
0
VERTEX
8
Parcela Baze
10
7512468.208
20
4695728.093
0
VERTEX
8
Parcela Baze
10
7512451.591
20
4695745.815
0
VERTEX
8
Parcela Baze
10
7512514.715
20
4695808.834
0
VERTEX
8
Parcela Baze
10
7512557.812
20
4695771.423
0
VERTEX
8
Parcela Baze
10
7512649.582
20
4695689.616
0
VERTEX
8
Parcela Baze
10
7512640.968
20
4695682.714
0
VERTEX
8
Parcela Baze
10
7512629.907
20
4695679.455
0
VERTEX
8
Parcela Baze
10
7512623.028
20
4695673.094
0
VERTEX
8
Parcela Baze
10
7512617.227
20
4695672.296
0
VERTEX
8
Parcela Baze
10
7512612.976
20
4695679.590
0
VERTEX
8
Parcela Baze
10
7512607.307
20
4695674.746
0
VERTEX
8
Parcela Baze
10
7512599.032
20
4695676.118
0
VERTEX
8
Parcela Baze
10
7512606.167
20
4695666.116
0
VERTEX
8
Parcela Baze
10
7512564.266
20
4695635.270
0
VERTEX
8
Parcela Baze
10
7512553.725
20
4695629.420
0
VERTEX
8
Parcela Baze
10
7512547.545
20
4695626.171
0
VERTEX
8
Parcela Baze
10
7512544.455
20
4695628.121
0
VERTEX
8
Parcela Baze
10
7512530.315
20
4695615.922
0
VERTEX
8
Parcela Baze
10
7512501.516
20
4695651.073
0
VERTEX
8
Parcela Baze
10
7512505.186
20
4695653.752
0
SEQEND
0
TEXT
8
Nr Parceles Baze
10
7512522.877
20
4695704.250
40
0.800000
1
45-0
0
TEXT
8
Nr e Pikave Gjeodezike te Parceles Baze
10
7512501.516
20
4695651.073
40
0.800000
1
4218
0
POINT
8
Pikat
10
7512501.516
20
4695651.073
0
TEXT
8
Nr e Pikave Gjeodezike te Parceles Baze
10
7512530.315
20
4695615.922
40
0.800000
1
4219
0
POINT
8
Pikat
10
7512530.315
20
4695615.922
0
TEXT
8
Nr e Pikave Gjeodezike te Parceles Baze
10
7512544.455
20
4695628.121
40
0.800000
1
4220
0
POINT
8
Pikat
10
7512544.455
20
4695628.121
0
TEXT
8
Nr e Pikave Gjeodezike te Parceles Baze
10
7512547.545
20
4695626.171
40
0.800000
1
4221
0
POINT
8
Pikat
10
7512547.545
20
4695626.171
0
TEXT
8
Nr e Pikave Gjeodezike te Parceles Baze
10
7512553.725
20
4695629.420
40
0.800000
1
4222
0
POINT
8
Pikat
10
7512553.725
20
4695629.420
0
TEXT
8
Nr e Pikave Gjeodezike te Parceles Baze
10
7512564.266
20
4695635.270
40
0.800000
1
4223
0
POINT
8
Pikat
10
7512564.266
20
4695635.270
0
TEXT
8
Nr e Pikave Gjeodezike te Parceles Baze
10
7512606.167
20
4695666.116
40
0.800000
1
4224
0
POINT
8
Pikat
10
7512606.167
20
4695666.116
0
TEXT
8
Nr e Pikave Gjeodezike te Parceles Baze
10
7512607.307
20
4695674.746
40
0.800000
1
4226
0
POINT
8
Pikat
10
7512607.307
20
4695674.746
0
TEXT
8
Nr e Pikave Gjeodezike te Parceles Baze
10
7512617.227
20
4695672.296
40
0.800000
1
4228
0
POINT
8
Pikat
10
7512617.227
20
4695672.296
0
TEXT
8
Nr e Pikave Gjeodezike te Parceles Baze
10
7512629.907
20
4695679.455
40
0.800000
1
4230
0
POINT
8
Pikat
10
7512629.907
20
4695679.455
0
TEXT
8
Nr e Pikave Gjeodezike te Parceles Baze
10
7512640.968
20
4695682.714
40
0.800000
1
4231
0
POINT
8
Pikat
10
7512640.968
20
4695682.714
0
TEXT
8
Nr e Pikave Gjeodezike te Parceles Baze
10
7512505.186
20
4695653.752
40
0.800000
1
5832
0
POINT
8
Pikat
10
7512505.186
20
4695653.752
0
TEXT
8
Nr e Pikave Gjeodezike te Parceles Baze
10
7512451.591
20
4695745.815
40
0.800000
1
5833
0
POINT
8
Pikat
10
7512451.591
20
4695745.815
0
TEXT
8
Nr e Pikave Gjeodezike te Parceles Baze
10
7512468.208
20
4695728.093
40
0.800000
1
5834
0
POINT
8
Pikat
10
7512468.208
20
4695728.093
0
TEXT
8
Nr e Pikave Gjeodezike te Parceles Baze
10
7512517.306
20
4695659.112
40
0.800000
1
5835
0
POINT
8
Pikat
10
7512517.306
20
4695659.112
0
TEXT
8
Nr e Pikave Gjeodezike te Parceles Baze
10
7512514.715
20
4695808.834
40
0.800000
1
6417
0
POINT
8
Pikat
10
7512514.715
20
4695808.834
0
TEXT
8
Nr e Pikave Gjeodezike te Parceles Baze
10
7512557.812
20
4695771.423
40
0.800000
1
6418
0
POINT
8
Pikat
10
7512557.812
20
4695771.423
0
TEXT
8
Nr e Pikave Gjeodezike te Parceles Baze
10
7512514.715
20
4695808.834
40
0.800000
1
2245-28073
0
POINT
8
Pikat
10
7512514.715
20
4695808.834
0
TEXT
8
Nr e Pikave Gjeodezike te Parceles Baze
10
7512451.591
20
4695745.815
40
0.800000
1
2245-28074
0
POINT
8
Pikat
10
7512451.591
20
4695745.815
0
TEXT
8
Nr e Pikave Gjeodezike te Parceles Baze
10
7512557.812
20
4695771.423
40
0.800000
1
2245-28360
0
POINT
8
Pikat
10
7512557.812
20
4695771.423
0
TEXT
8
Nr e Pikave Gjeodezike te Parceles Baze
10
7512649.582
20
4695689.616
40
0.800000
1
2245-28368
0
POINT
8
Pikat
10
7512649.582
20
4695689.616
0
TEXT
8
Nr e Pikave Gjeodezike te Parceles Baze
10
7512599.032
20
4695676.118
40
0.800000
1
7649
0
POINT
8
Pikat
10
7512599.032
20
4695676.118
0
TEXT
8
Nr e Pikave Gjeodezike te Parceles Baze
10
7512612.976
20
4695679.590
40
0.800000
1
7648
0
POINT
8
Pikat
10
7512612.976
20
4695679.590
0
TEXT
8
Nr e Pikave Gjeodezike te Parceles Baze
10
7512623.028
20
4695673.094
40
0.800000
1
7650
0
POINT
8
Pikat
10
7512623.028
20
4695673.094
0
TEXT
8
Nr e Pikave Gjeodezike te Parceles Baze
10
7512649.582
20
4695689.616
40
0.800000
1
7635
0
POINT
8
Pikat
10
7512649.582
20
4695689.616
0
ENDSEC
0
EOF
